<svg version="1" xmlns="http://www.w3.org/2000/svg" width="93.333" height="93.333" viewBox="0 0 70.000000 70.000000"><path d="M0 35v35h70V0H0v35zm65.5 0v30.5h-61l-.1-30.7-.2-30.7 30.7.2 30.6.2V35z"/><path d="M28.3 9c-1.3.5-2.3.7-2.3.5 0-1.1-8.7 5-11.3 7.9C12.3 20 10 24 9.6 26c-.1.3-.4 1-.8 1.5-1.1 1.8-.1 16 1.3 18.5C16.2 56.5 23.3 61.2 34 61.6c12.2.5 23.6-7.4 26.7-18.6 2.6-9.2.2-19.9-5.9-26.1C51.2 13.2 43 8.2 43 9.6c0 .4-.6.2-1.2-.3-1.7-1.2-10.7-1.4-13.5-.3zm15.4 5.6c9.4 3.5 15.3 15 13 25.5-2.5 12-17.2 20.3-28.2 16.1-7.1-2.8-10.5-5.5-13-10.7-3-6-3.5-10.6-1.9-16.2 1.6-5.5 4.8-9.9 9.4-12.8 7-4.4 12.7-5 20.7-1.9z"/></svg>