<?xml version="1.0" standalone="no"?>
<!DOCTYPE svg PUBLIC "-//W3C//DTD SVG 20010904//EN"
 "http://www.w3.org/TR/2001/REC-SVG-20010904/DTD/svg10.dtd">
<svg version="1.0" xmlns="http://www.w3.org/2000/svg"
 width="70.000000pt" height="70.000000pt" viewBox="0 0 70.000000 70.000000"
 preserveAspectRatio="xMidYMid meet">
<metadata>
Created by potrace 1.11, written by Peter Selinger 2001-2013
</metadata>
<g transform="translate(0.000000,70.000000) scale(0.100000,-0.100000)"
fill="#000000" stroke="none">
<path d="M0 350 l0 -350 350 0 350 0 0 350 0 350 -350 0 -350 0 0 -350z m655
0 l0 -305 -305 0 -305 0 -1 307 -2 307 307 -2 306 -2 0 -305z"/>
<path d="M283 610 c-13 -5 -23 -7 -23 -5 0 11 -87 -50 -113 -79 -24 -26 -47
-66 -51 -86 -1 -3 -4 -10 -8 -15 -11 -18 -1 -160 13 -185 61 -105 132 -152
239 -156 122 -5 236 74 267 186 26 92 2 199 -59 261 -36 37 -118 87 -118 73 0
-4 -6 -2 -12 3 -17 12 -107 14 -135 3z m154 -56 c94 -35 153 -150 130 -255
-25 -120 -172 -203 -282 -161 -71 28 -105 55 -130 107 -30 60 -35 106 -19 162
16 55 48 99 94 128 70 44 127 50 207 19z"/>
</g>
</svg>
